<?xml version="1.0" standalone="no"?>
<!DOCTYPE svg PUBLIC "-//W3C//DTD SVG 20010904//EN"
 "http://www.w3.org/TR/2001/REC-SVG-20010904/DTD/svg10.dtd">
<svg version="1.0" xmlns="http://www.w3.org/2000/svg"
 width="700.000000pt" height="700.000000pt" viewBox="0 0 700.000000 700.000000"
 preserveAspectRatio="xMidYMid meet">
<metadata>
Created by potrace 1.14, written by Peter Selinger 2001-2017
</metadata>
<g transform="translate(0.000000,700.000000) scale(0.100000,-0.100000)"
fill="#000000" stroke="none">
<path d="M2182 6477 c-193 -196 -223 -239 -246 -351 -21 -99 -9 -184 39 -283
130 -265 485 -322 695 -113 89 90 131 200 126 329 -6 149 -38 201 -254 419
l-180 180 -180 -181z"/>
<path d="M3331 6486 c-188 -189 -198 -200 -230 -269 -96 -210 -5 -463 204
-567 78 -38 130 -49 218 -45 338 16 527 397 338 680 -12 17 -97 107 -190 201
l-170 170 -170 -170z"/>
<path d="M4461 6482 c-191 -194 -231 -251 -251 -359 -27 -144 16 -289 117
-390 177 -176 460 -173 627 7 48 52 92 126 102 172 2 10 7 28 10 41 9 39 6
152 -6 198 -26 97 -59 141 -244 326 l-181 181 -174 -176z"/>
<path d="M2271 5233 c-26 -9 -65 -36 -92 -63 -60 -61 -79 -119 -79 -249 l0
-96 -59 -18 c-359 -112 -639 -490 -636 -862 0 -57 3 -69 15 -67 18 5 116 19
185 27 28 3 84 10 125 15 72 9 127 15 215 24 22 3 74 8 115 11 41 4 91 8 110
10 40 4 150 13 230 20 30 2 105 7 165 11 61 3 133 7 160 9 364 23 1085 23
1540 1 118 -6 291 -17 335 -21 25 -2 83 -7 130 -10 47 -3 96 -8 110 -10 14 -2
59 -7 100 -10 41 -4 87 -8 103 -10 15 -2 62 -7 105 -10 42 -4 85 -9 96 -11 10
-2 44 -6 75 -9 31 -4 63 -8 71 -10 8 -2 46 -7 84 -11 38 -3 80 -10 93 -15 18
-7 25 -5 29 6 6 15 -1 140 -11 185 -3 14 -8 41 -11 60 -10 53 -62 184 -100
252 -114 201 -305 358 -521 426 l-53 17 0 96 c0 130 -19 188 -79 249 -132 132
-346 92 -424 -80 -14 -32 -20 -68 -21 -124 -1 -69 -4 -80 -21 -86 -11 -4 -22
-6 -25 -4 -7 3 -262 15 -435 19 l-130 3 -2 53 c-3 91 -12 129 -45 179 -94 143
-290 160 -409 33 -49 -51 -71 -113 -71 -195 0 -38 -3 -68 -7 -69 -3 0 -71 -2
-151 -4 -133 -4 -380 -14 -398 -16 -4 -1 -18 -1 -32 0 -24 1 -25 3 -26 84 -1
93 -21 150 -73 205 -66 71 -186 99 -280 65z"/>
<path d="M3049 3495 c-2 -2 -76 -6 -164 -9 -88 -4 -189 -8 -225 -11 -36 -2
-112 -6 -170 -10 -58 -3 -116 -8 -130 -10 -14 -2 -65 -6 -113 -10 -48 -3 -96
-8 -105 -9 -9 -2 -57 -7 -107 -11 -101 -9 -105 -10 -195 -19 -35 -4 -67 -9
-70 -11 -3 -1 -37 -6 -75 -9 -39 -4 -80 -8 -90 -10 -11 -2 -41 -7 -67 -10 -62
-8 -168 -41 -245 -76 -297 -135 -519 -427 -577 -758 -7 -43 -14 -155 -15 -250
l-2 -174 96 6 c53 3 100 8 103 10 4 2 25 7 47 10 111 18 209 53 405 144 100
47 226 88 351 115 165 37 186 39 374 42 298 5 535 -46 815 -175 251 -116 375
-145 615 -145 160 1 204 6 331 40 94 26 132 39 219 80 117 54 164 74 232 98
69 25 171 54 223 64 14 2 59 11 100 20 46 9 145 16 255 18 319 5 552 -46 865
-193 87 -41 157 -67 235 -88 55 -15 186 -36 254 -41 l84 -6 -6 204 c-4 179 -8
216 -31 304 -110 412 -447 710 -862 760 -27 3 -80 10 -119 15 -38 5 -95 12
-125 15 -30 3 -71 8 -90 10 -49 7 -135 15 -200 21 -30 2 -75 6 -100 9 -25 3
-79 7 -120 10 -41 3 -100 7 -130 10 -30 3 -107 8 -170 11 -63 3 -151 8 -195
11 -98 5 -1102 13 -1106 8z"/>
<path d="M2010 1912 c-185 -14 -297 -46 -520 -147 -161 -73 -343 -133 -455
-149 -23 -4 -51 -8 -63 -11 -27 -5 -172 -17 -227 -19 l-40 -2 -2 -219 c-1
-202 1 -226 21 -290 28 -89 64 -150 125 -213 68 -70 142 -114 256 -150 11 -4
1082 -8 2380 -9 2590 -2 2401 -6 2534 58 75 37 164 122 209 200 59 104 72 178
72 414 l0 211 -37 0 c-75 0 -214 14 -285 28 -40 9 -84 17 -98 20 -101 20 -256
76 -410 149 -117 55 -234 92 -354 113 -123 22 -335 21 -445 -1 -74 -15 -208
-53 -246 -70 -16 -7 -79 -35 -140 -63 -161 -72 -335 -129 -450 -146 -22 -4
-53 -9 -70 -12 -143 -25 -389 -23 -556 5 -118 20 -278 61 -334 86 -16 7 -48
20 -70 28 -22 8 -78 33 -125 55 -223 105 -452 151 -670 134z"/>
</g>
</svg>
