<svg width="70" height="70" viewBox="0 0 70 70" fill="none" xmlns="http://www.w3.org/2000/svg">
<path d="M23.625 3.42969L20.531 6.52019C19.9193 7.13209 19.5027 7.91164 19.334 8.76028C19.1653 9.60891 19.252 10.4885 19.5831 11.2879C19.9143 12.0872 20.4751 12.7705 21.1945 13.2511C21.9139 13.7318 22.7598 13.9884 23.625 13.9884C24.4902 13.9884 25.3361 13.7318 26.0555 13.2511C26.7749 12.7705 27.3357 12.0872 27.6669 11.2879C27.998 10.4885 28.0847 9.60891 27.916 8.76028C27.7473 7.91164 27.3307 7.13209 26.719 6.52019L23.625 3.42969ZM46.375 3.42969L43.281 6.52019C42.6693 7.13209 42.2527 7.91164 42.084 8.76028C41.9153 9.60891 42.002 10.4885 42.3331 11.2879C42.6643 12.0872 43.2251 12.7705 43.9445 13.2511C44.6639 13.7318 45.5098 13.9884 46.375 13.9884C47.2402 13.9884 48.0861 13.7318 48.8055 13.2511C49.5249 12.7705 50.0857 12.0872 50.4169 11.2879C50.748 10.4885 50.8347 9.60891 50.666 8.76028C50.4973 7.91164 50.0807 7.13209 49.469 6.52019L46.375 3.42969ZM35 3.42969L38.094 6.52019C38.7057 7.13209 39.1223 7.91164 39.291 8.76028C39.4597 9.60891 39.373 10.4885 39.0419 11.2879C38.7107 12.0872 38.1499 12.7705 37.4305 13.2511C36.7111 13.7318 35.8652 13.9884 35 13.9884C34.1348 13.9884 33.2889 13.7318 32.5695 13.2511C31.8501 12.7705 31.2893 12.0872 30.9581 11.2879C30.627 10.4885 30.5403 9.60891 30.709 8.76028C30.8777 7.91164 31.2943 7.13209 31.906 6.52019L35 3.42969ZM26.25 20.1247C26.25 19.4285 25.9734 18.7608 25.4812 18.2685C24.9889 17.7762 24.3212 17.4997 23.625 17.4997C22.9288 17.4997 22.2611 17.7762 21.7688 18.2685C21.2766 18.7608 21 19.4285 21 20.1247V21.7487C16.8735 22.8162 14 26.6137 14 30.9257V31.2547C14.35 31.1847 14.707 31.1217 15.071 31.0762C21.6772 30.1919 28.3349 29.7487 35 29.7497C41.755 29.7497 48.405 30.2012 54.929 31.0762C55.293 31.1217 55.65 31.1812 56 31.2547V30.9257C56 26.6137 53.1265 22.8162 49 21.7487V20.1247C49 19.4285 48.7234 18.7608 48.2312 18.2685C47.7389 17.7762 47.0712 17.4997 46.375 17.4997C45.6788 17.4997 45.0111 17.7762 44.5188 18.2685C44.0266 18.7608 43.75 19.4285 43.75 20.1247V21.2377C41.7099 21.1262 39.6679 21.0538 37.625 21.0207V20.1247C37.625 19.4285 37.3484 18.7608 36.8562 18.2685C36.3639 17.7762 35.6962 17.4997 35 17.4997C34.3038 17.4997 33.6361 17.7762 33.1438 18.2685C32.6516 18.7608 32.375 19.4285 32.375 20.1247V21.0207C30.324 21.0557 28.28 21.1257 26.25 21.2377V20.1247ZM15.7675 36.2772C22.1429 35.4247 28.5679 34.9979 35 34.9997C41.5205 34.9997 47.9395 35.4337 54.2325 36.2772C59.3845 36.9667 63 41.4327 63 46.4797V48.9052C60.977 48.9056 58.9818 48.4347 57.1725 47.5297C54.635 46.2612 51.837 45.6007 49 45.6007C46.163 45.6007 43.365 46.2612 40.8275 47.5297C39.0182 48.4347 37.023 48.9058 35 48.9058C32.977 48.9058 30.9818 48.4347 29.1725 47.5297C26.635 46.2612 23.837 45.6007 21 45.6007C18.163 45.6007 15.365 46.2612 12.8275 47.5297C11.0179 48.4335 9.0227 48.9032 7 48.9017V46.4762C7 41.4327 10.6155 36.9702 15.7675 36.2772ZM54.8275 52.2232C57.365 53.4918 60.1631 54.1521 63 54.1517V57.7497C63 59.1421 62.4469 60.4774 61.4623 61.462C60.4777 62.4466 59.1424 62.9997 57.75 62.9997H12.25C10.8576 62.9997 9.52226 62.4466 8.53769 61.462C7.55312 60.4774 7 59.1421 7 57.7497V54.1517C9.8 54.1517 12.6 53.5112 15.1725 52.2232C16.9818 51.3182 18.977 50.8471 21 50.8471C23.023 50.8471 25.0182 51.3182 26.8275 52.2232C31.9725 54.7957 38.0275 54.7957 43.1725 52.2232C44.9818 51.3182 46.977 50.8471 49 50.8471C51.023 50.8471 53.0182 51.3182 54.8275 52.2232Z" fill="#F74737"/>
</svg>
