<svg width="50" height="50" viewBox="0 0 50 50" fill="none" xmlns="http://www.w3.org/2000/svg">
<path d="M16.875 2.4502L14.665 4.6577C14.228 5.09477 13.9305 5.65159 13.81 6.25776C13.6895 6.86393 13.7514 7.49222 13.988 8.06319C14.2245 8.63416 14.625 9.12217 15.1389 9.46551C15.6528 9.80886 16.257 9.99211 16.875 9.99211C17.493 9.99211 18.0972 9.80886 18.6111 9.46551C19.125 9.12217 19.5255 8.63416 19.762 8.06319C19.9986 7.49222 20.0605 6.86393 19.94 6.25776C19.8195 5.65159 19.522 5.09477 19.085 4.6577L16.875 2.4502ZM33.125 2.4502L30.915 4.6577C30.478 5.09477 30.1805 5.65159 30.06 6.25776C29.9395 6.86393 30.0014 7.49222 30.238 8.06319C30.4745 8.63416 30.875 9.12217 31.3889 9.46551C31.9028 9.80886 32.507 9.99211 33.125 9.99211C33.743 9.99211 34.3472 9.80886 34.8611 9.46551C35.375 9.12217 35.7755 8.63416 36.012 8.06319C36.2486 7.49222 36.3105 6.86393 36.19 6.25776C36.0695 5.65159 35.772 5.09477 35.335 4.6577L33.125 2.4502ZM25 2.4502L27.21 4.6577C27.647 5.09477 27.9445 5.65159 28.065 6.25776C28.1855 6.86393 28.1236 7.49222 27.887 8.06319C27.6505 8.63416 27.25 9.12217 26.7361 9.46551C26.2222 9.80886 25.618 9.99211 25 9.99211C24.382 9.99211 23.7778 9.80886 23.2639 9.46551C22.75 9.12217 22.3495 8.63416 22.113 8.06319C21.8764 7.49222 21.8145 6.86393 21.935 6.25776C22.0555 5.65159 22.353 5.09477 22.79 4.6577L25 2.4502ZM18.75 14.3752C18.75 13.8779 18.5525 13.401 18.2008 13.0494C17.8492 12.6977 17.3723 12.5002 16.875 12.5002C16.3777 12.5002 15.9008 12.6977 15.5492 13.0494C15.1975 13.401 15 13.8779 15 14.3752V15.5352C12.0525 16.2977 10 19.0102 10 22.0902V22.3252C10.25 22.2752 10.505 22.2302 10.765 22.1977C15.4837 21.566 20.2392 21.2495 25 21.2502C29.825 21.2502 34.575 21.5727 39.235 22.1977C39.495 22.2302 39.75 22.2727 40 22.3252V22.0902C40 19.0102 37.9475 16.2977 35 15.5352V14.3752C35 13.8779 34.8025 13.401 34.4508 13.0494C34.0992 12.6977 33.6223 12.5002 33.125 12.5002C32.6277 12.5002 32.1508 12.6977 31.7992 13.0494C31.4475 13.401 31.25 13.8779 31.25 14.3752V15.1702C29.7928 15.0906 28.3342 15.0389 26.875 15.0152V14.3752C26.875 13.8779 26.6775 13.401 26.3258 13.0494C25.9742 12.6977 25.4973 12.5002 25 12.5002C24.5027 12.5002 24.0258 12.6977 23.6742 13.0494C23.3225 13.401 23.125 13.8779 23.125 14.3752V15.0152C21.66 15.0402 20.2 15.0902 18.75 15.1702V14.3752ZM11.2625 25.9127C15.8163 25.3038 20.4057 24.999 25 25.0002C29.6575 25.0002 34.2425 25.3102 38.7375 25.9127C42.4175 26.4052 45 29.5952 45 33.2002V34.9327C43.555 34.933 42.1298 34.5966 40.8375 33.9502C39.025 33.0441 37.0264 32.5724 35 32.5724C32.9736 32.5724 30.975 33.0441 29.1625 33.9502C27.8701 34.5966 26.445 34.9331 25 34.9331C23.555 34.9331 22.1299 34.5966 20.8375 33.9502C19.025 33.0441 17.0264 32.5724 15 32.5724C12.9736 32.5724 10.975 33.0441 9.1625 33.9502C7.86996 34.5958 6.44479 34.9313 5 34.9302V33.1977C5 29.5952 7.5825 26.4077 11.2625 25.9127ZM39.1625 37.3027C40.975 38.2089 42.9736 38.6805 45 38.6802V41.2502C45 42.2448 44.6049 43.1986 43.9016 43.9018C43.1984 44.6051 42.2446 45.0002 41.25 45.0002H8.75C7.75544 45.0002 6.80161 44.6051 6.09835 43.9018C5.39509 43.1986 5 42.2448 5 41.2502V38.6802C7 38.6802 9 38.2227 10.8375 37.3027C12.1299 36.6563 13.555 36.3198 15 36.3198C16.445 36.3198 17.8701 36.6563 19.1625 37.3027C22.8375 39.1402 27.1625 39.1402 30.8375 37.3027C32.1299 36.6563 33.555 36.3198 35 36.3198C36.445 36.3198 37.8701 36.6563 39.1625 37.3027Z" fill="white"/>
</svg>
