<svg width="50" height="50" viewBox="0 0 50 50" fill="none" xmlns="http://www.w3.org/2000/svg">
<path d="M43.4897 45.8334C38.0731 45.8334 32.9779 44.8091 28.2043 42.7605C23.4293 40.7119 19.2626 37.9084 15.7043 34.3501C12.1446 30.7904 9.33208 26.6237 7.26681 21.8501C5.20014 17.0751 4.16681 11.9619 4.16681 6.5105C4.13208 5.8855 4.34042 5.33828 4.79181 4.86883C5.24319 4.40078 5.79875 4.16675 6.45847 4.16675H14.5835C15.2085 4.16675 15.7467 4.40078 16.1981 4.86883C16.6494 5.33828 16.8751 5.90286 16.8751 6.56258C16.8751 8.09036 16.9793 9.53133 17.1876 10.8855C17.396 12.2397 17.7258 13.5244 18.1772 14.7397C18.3508 15.1216 18.3856 15.5119 18.2814 15.9105C18.1772 16.3105 17.9689 16.6841 17.6564 17.0313L12.4481 22.2397C13.9411 25.2952 16.0592 28.1945 18.8022 30.9376C21.5453 33.6806 24.4967 35.8681 27.6564 37.5001L32.8647 32.2917C33.1772 31.9792 33.5418 31.7709 33.9585 31.6667C34.3751 31.5626 34.7918 31.5973 35.2085 31.7709C36.4932 32.1876 37.821 32.5084 39.1918 32.7334C40.564 32.9598 41.9793 33.073 43.4376 33.073C44.0974 33.073 44.6619 33.3161 45.1314 33.8022C45.5994 34.2883 45.8335 34.8786 45.8335 35.573V43.5417C45.8335 44.1667 45.6078 44.7049 45.1564 45.1563C44.705 45.6077 44.1494 45.8334 43.4897 45.8334ZM41.6668 25.0001C41.6668 20.3473 40.0522 16.4063 36.8231 13.1772C33.5939 9.948 29.6529 8.33341 25.0001 8.33341V4.16675C27.8821 4.16675 30.5904 4.71328 33.1251 5.80633C35.6599 6.90078 37.8647 8.3855 39.7397 10.2605C41.6147 12.1355 43.0987 14.3404 44.1918 16.8751C45.2862 19.4098 45.8335 22.1181 45.8335 25.0001H41.6668ZM33.3335 25.0001C33.3335 22.7084 32.5175 20.7466 30.8856 19.1147C29.2536 17.4827 27.2918 16.6667 25.0001 16.6667V12.5001C28.4724 12.5001 31.4237 13.7154 33.8543 16.1459C36.2849 18.5765 37.5001 21.5279 37.5001 25.0001H33.3335Z" fill="#F74737"/>
</svg>
